<svg version="1.2" xmlns="http://www.w3.org/2000/svg" viewBox="0 0 512 512" width="512" height="512">
	<style>
		.s0 { fill: #000000 } 
	</style>
	<path id="Preencher com Cor Sólida 1" fill-rule="evenodd" class="s0" d="m408.5 42.54l7.5 2.3c4.13 1.27 10.43 3.84 14 5.71 3.57 1.88 9.2 5.58 12.5 8.23 3.3 2.65 8.15 7.49 10.77 10.77 2.63 3.27 6.31 8.87 8.18 12.45 1.88 3.58 4.45 10.1 8.05 22.5v239l-2.32 8c-1.28 4.4-3.85 10.93-5.73 14.5-1.87 3.57-5.8 9.43-8.73 13-2.93 3.57-8.23 8.69-11.77 11.36-3.55 2.68-9.04 6.16-12.2 7.75-3.16 1.59-9.01 3.82-13 4.96-4.52 1.29-12.03 2.32-32.61 3.43l-0.66 4.5c-0.36 2.48-1.87 7.65-3.35 11.5-1.48 3.85-4.76 10.15-7.3 14-2.53 3.85-7.47 9.7-10.97 13.01-3.5 3.3-9.06 7.66-12.36 9.68-3.3 2.02-10.27 5.16-25 10.31h-219l-8-2.32c-4.4-1.28-10.92-3.85-14.5-5.73-3.58-1.87-9.18-5.55-12.45-8.18-3.28-2.62-8.14-7.47-10.81-10.77-2.67-3.3-6.63-9.6-8.8-14-2.16-4.4-4.72-10.93-5.68-14.5-1.63-6.01-1.76-14.71-1.76-115.5 0-102.42 0.11-109.39 1.82-115.5 1.01-3.57 3.32-9.65 5.14-13.5 1.83-3.85 5.63-9.93 8.46-13.5 2.83-3.57 7.71-8.65 10.86-11.27 3.15-2.62 9.09-6.53 13.22-8.7 4.12-2.16 11.1-4.86 15.5-5.99 5.78-1.49 11.12-2.06 30.5-2.04l-0.01-11.25c-0.01-8.13 0.56-13.47 2.05-19.25 1.13-4.4 3.83-11.38 6-15.5 2.16-4.12 5.98-9.97 8.48-13 2.49-3.03 6.89-7.44 9.76-9.8 2.87-2.37 7.92-5.82 11.22-7.68 3.3-1.85 8.93-4.34 12.5-5.52 3.57-1.19 8.97-2.53 12-2.97 3.03-0.45 53.42-0.74 218.5-0.49zm-216.97 45.27c-2.84 0.97-7.11 3.65-10 6.27-3.07 2.81-5.97 6.69-7.46 10-1.88 4.19-2.5 7.52-2.75 14.67l-0.32 9.25c141.22 0.01 151.3 0.22 157 1.63 3.57 0.89 9.2 2.83 12.5 4.3 3.3 1.47 8.25 4.18 11 6.01 2.75 1.84 7.4 5.64 10.34 8.45 2.94 2.81 7.19 7.81 9.44 11.11 2.26 3.3 5.31 8.7 6.78 12 1.48 3.3 3.42 8.93 4.31 12.5 1.42 5.73 1.62 16.6 1.62 92.25l0.01 85.75c14.87 0 18.44-0.55 22.75-2.21 3.6-1.39 7.45-3.92 10.29-6.75 2.83-2.84 5.36-6.69 6.75-10.29l2.21-5.75v-226c-3.6-9.35-6.13-13.2-8.96-16.04-2.84-2.83-6.69-5.36-10.29-6.75l-5.75-2.21c-195.48 0.12-204.94 0.27-209.47 1.81z"/>
</svg>